<?xml version="1.0" encoding="UTF-8" standalone="no"?><!DOCTYPE svg PUBLIC "-//W3C//DTD SVG 1.1//EN" "http://www.w3.org/Graphics/SVG/1.1/DTD/svg11.dtd"><svg width="100%" height="100%" viewBox="0 0 478 478" version="1.1" xmlns="http://www.w3.org/2000/svg" xmlns:xlink="http://www.w3.org/1999/xlink" xml:space="preserve" style="fill-rule:evenodd;clip-rule:evenodd;stroke-linejoin:round;stroke-miterlimit:1.41421;"><path d="M126.193,0.001c0.81,0.014 1.615,0.087 2.411,0.232c1.732,0.316 3.402,0.953 4.905,1.869c0.62,0.379 1.211,0.804 1.768,1.27c0.284,0.239 0.557,0.489 0.825,0.746c75.275,74.337 150.097,149.137 224.423,224.424c0.337,0.35 0.66,0.713 0.962,1.095c0.664,0.838 1.231,1.751 1.689,2.716c0.919,1.939 1.39,4.081 1.382,6.226c-0.007,2.089 -0.47,4.174 -1.358,6.066c-0.456,0.971 -1.022,1.89 -1.685,2.733c-0.341,0.434 -0.708,0.844 -1.094,1.237c-75.076,74.615 -149.588,149.796 -224.537,224.539c-0.442,0.429 -0.906,0.834 -1.4,1.204c-1.002,0.753 -2.106,1.367 -3.272,1.826c-1.612,0.633 -3.339,0.969 -5.071,0.99c-1.5,0.018 -2.999,-0.216 -4.428,-0.673c-1.695,-0.542 -3.289,-1.396 -4.681,-2.505c-1.429,-1.139 -2.643,-2.546 -3.556,-4.13c-0.646,-1.119 -1.139,-2.326 -1.462,-3.577c-0.362,-1.399 -0.511,-2.852 -0.441,-4.295c0.072,-1.507 0.382,-3 0.918,-4.411c0.485,-1.28 1.155,-2.489 1.981,-3.581c0.409,-0.54 0.856,-1.047 1.332,-1.528l213.899,-213.899c-71.343,-71.343 -143.132,-142.243 -214.028,-214.03c-0.13,-0.134 -0.13,-0.134 -0.257,-0.27c-0.373,-0.407 -0.727,-0.829 -1.055,-1.273c-0.706,-0.959 -1.294,-2.005 -1.744,-3.108c-0.985,-2.418 -1.294,-5.093 -0.888,-7.672c0.255,-1.617 0.788,-3.189 1.571,-4.627c0.786,-1.447 1.823,-2.754 3.044,-3.859c1.203,-1.088 2.587,-1.974 4.082,-2.605c1.179,-0.498 2.425,-0.837 3.694,-1.006c0.572,-0.076 1.148,-0.114 1.725,-0.124c0.173,-0.001 0.173,-0.001 0.346,0Z" style="fill:#fff;"/></svg>