<?xml version="1.0" encoding="UTF-8" standalone="no"?><!DOCTYPE svg PUBLIC "-//W3C//DTD SVG 1.1//EN" "http://www.w3.org/Graphics/SVG/1.1/DTD/svg11.dtd"><svg width="100%" height="100%" viewBox="0 0 478 478" version="1.1" xmlns="http://www.w3.org/2000/svg" xmlns:xlink="http://www.w3.org/1999/xlink" xml:space="preserve" style="fill-rule:evenodd;clip-rule:evenodd;stroke-linejoin:round;stroke-miterlimit:1.41421;"><path d="M349.921,477.174c-0.809,-0.014 -1.614,-0.087 -2.411,-0.232c-1.732,-0.316 -3.402,-0.953 -4.905,-1.869c-0.62,-0.379 -1.211,-0.804 -1.767,-1.27c-0.285,-0.239 -0.558,-0.489 -0.825,-0.746c-75.276,-74.337 -150.097,-149.137 -224.423,-224.424c-0.338,-0.35 -0.661,-0.713 -0.963,-1.095c-0.663,-0.838 -1.23,-1.751 -1.688,-2.716c-0.919,-1.939 -1.391,-4.081 -1.383,-6.226c0.008,-2.089 0.47,-4.174 1.358,-6.066c0.456,-0.971 1.023,-1.89 1.686,-2.733c0.34,-0.434 0.708,-0.844 1.094,-1.237c75.076,-74.615 149.587,-149.796 224.536,-224.539c0.443,-0.429 0.907,-0.834 1.4,-1.204c1.002,-0.753 2.106,-1.367 3.272,-1.826c1.612,-0.633 3.339,-0.969 5.071,-0.99c1.5,-0.018 3,0.216 4.428,0.673c1.696,0.542 3.289,1.396 4.681,2.505c1.429,1.139 2.644,2.546 3.556,4.13c0.646,1.119 1.139,2.326 1.463,3.577c0.361,1.399 0.51,2.852 0.441,4.295c-0.073,1.507 -0.383,3 -0.918,4.411c-0.486,1.28 -1.156,2.489 -1.982,3.581c-0.408,0.54 -0.856,1.047 -1.331,1.528l-213.899,213.899c71.343,71.343 143.131,142.243 214.028,214.03c0.129,0.134 0.129,0.134 0.257,0.27c0.372,0.407 0.727,0.829 1.054,1.273c0.707,0.959 1.294,2.005 1.744,3.108c0.986,2.418 1.294,5.093 0.888,7.672c-0.255,1.617 -0.788,3.189 -1.57,4.627c-0.787,1.447 -1.824,2.754 -3.045,3.859c-1.203,1.088 -2.586,1.974 -4.081,2.605c-1.18,0.498 -2.425,0.837 -3.694,1.006c-0.573,0.076 -1.149,0.114 -1.726,0.124c-0.173,0.001 -0.173,0.001 -0.346,0Z" style="fill:#fff;"/></svg>